# xmcd CD database file
#
# Track frame offsets:
#	150
#	32051
#	67649
#	109401
#	138884
#	163435
#	187320
#	212748
#	243781
#	282670
#
# Disc length: 4184 seconds
#
# Revision: 0
# Processed by: cddbd v1.5.2PL0 Copyright (c) Steve Scherf et al.
# Submitted via: CDex 1.51
#
DISCID=9810560a
DTITLE=Román Filiú Quintet - Blowin' Reflections
DYEAR=2006
DGENRE=Jazz
TTITLE0=Tres Pasos
TTITLE1=Sansar
TTITLE2=Estrellita
TTITLE3=Pequeña forma
TTITLE4=Otra para ti
TTITLE5=Siete
TTITLE6=Anne
TTITLE7=Camello tropical
TTITLE8=Canción para Adelina
TTITLE9=Infantas 32
EXTD=YEAR: 2006
EXTT0=
EXTT1=
EXTT2=
EXTT3=
EXTT4=
EXTT5=
EXTT6=
EXTT7=
EXTT8=
EXTT9=
PLAYORDER=
